# xmcd
#
# Track frame offsets:
#        150
#        17390
#        34764
#        53475
#        67715
#        88429
#        105632
#        121135
#        136548
#        153807
#        167780
#        184018
#        201759
#        213876
#        230228
#
# Disc length: 3307 seconds
#
# Revision: 0
# Processed by: cddbd v1.5.2PL0 Copyright (c) Steve Scherf et al.
# Submitted via: CDGFix 3.8d
#
DISCID=b80ce90f
DTITLE=Various Artist - CB60090
DYEAR=1900
DGENRE=Karaoke
TTITLE0=David Kersh - Wonderful Tonight
TTITLE1=Mila Mason - The Strong One
TTITLE2=Garth Brooks - To Make You Feel My Love
TTITLE3=LeAnn Rimes - These Arms Of Mine
TTITLE4=Faith Hill and Tim McGraw - Just To Hear You Say That You Love Me
TTITLE5=Lisa Brokop - How Do I Let Go
TTITLE6=Restless Heart - No End To This Road
TTITLE7=JoDee Messina - I'm Alright
TTITLE8=Michael Peterson - When The Bartender Cries
TTITLE9=Ruby Lovett - Litlle Bitty Crack In His Heart
TTITLE10=Doug Stone - Gone Out Of My Mind
TTITLE11=Linda Davis - I Wanna Remember This
TTITLE12=George Strait - We Really Shouldn't Be Doing This
TTITLE13=Lari White - Stepping Stone
TTITLE14=George Strait - You Haven't Left Me Yet
EXTD=
EXTT0=
EXTT1=
EXTT2=
EXTT3=
EXTT4=
EXTT5=
EXTT6=
EXTT7=
EXTT8=
EXTT9=
EXTT10=
EXTT11=
EXTT12=
EXTT13=
EXTT14=
PLAYORDER=
